REM MD5 0e3d4031aa917a8bfb42761438506712
FILE "StarSweep (Japan) (Demo 1).bin" BINARY
  TRACK 01 MODE2/2352
    INDEX 01 00:00:00
  TRACK 02 AUDIO
    INDEX 00 00:11:56
    INDEX 01 00:13:56
  TRACK 03 AUDIO
    INDEX 00 02:31:10
    INDEX 01 02:33:10
REM LEADOUT 05:45:33
